<?xml version="1.0" encoding="UTF-8" standalone="no"?>
<!-- Created with Inkscape (http://www.inkscape.org/) -->

<svg
   width="300"
   height="300"
   viewBox="0 0 79.375002 79.375002"
   version="1.1"
   id="svg5"
   inkscape:version="1.1.1 (3bf5ae0d25, 2021-09-20, custom)"
   sodipodi:docname="logo.svg"
   xmlns:inkscape="http://www.inkscape.org/namespaces/inkscape"
   xmlns:sodipodi="http://sodipodi.sourceforge.net/DTD/sodipodi-0.dtd"
   xmlns="http://www.w3.org/2000/svg"
   xmlns:svg="http://www.w3.org/2000/svg">
  <sodipodi:namedview
     id="namedview7"
     pagecolor="#ffffff"
     bordercolor="#666666"
     borderopacity="1.0"
     inkscape:pageshadow="2"
     inkscape:pageopacity="0.0"
     inkscape:pagecheckerboard="0"
     inkscape:document-units="mm"
     showgrid="false"
     inkscape:zoom="0.72831998"
     inkscape:cx="28.83348"
     inkscape:cy="461.33569"
     inkscape:window-width="1920"
     inkscape:window-height="1048"
     inkscape:window-x="0"
     inkscape:window-y="32"
     inkscape:window-maximized="1"
     inkscape:current-layer="layer1"
     units="px"
     width="512px" />
  <defs
     id="defs2">
    <rect
       x="235.5537"
       y="421.85883"
       width="85.097557"
       height="98.704514"
       id="rect20828" />
  </defs>
  <g
     inkscape:label="Layer 1"
     inkscape:groupmode="layer"
     id="layer1">
    <path
       style="fill:#ffc0e0;fill-opacity:1;stroke:#cc9ebd;stroke-width:2;stroke-linecap:butt;stroke-linejoin:miter;stroke-miterlimit:4;stroke-dasharray:none;stroke-opacity:1"
       d="m 64.278185,54.194025 -1.850703,13.10724 -10.072715,-0.0445 0.332227,-5.69848 c -10.070439,4.25339 -20.092356,3.7983 -31.189749,-0.33597 l 0.275602,6.09359 -9.601168,-0.0461 -1.041912,-13.18413 C -0.66762648,41.138165 8.3312425,17.674039 45.082166,20.160415 c -1.212763,-6.246986 6.940435,-3.231592 14.576591,-9.381594 -10.005185,11.741404 -4.60209,12.024654 -3.175723,13.212364 3.931787,3.12919 7.504641,3.74715 11.070451,10.86452 l 5.67548,0.53998 0.007,13.2849 -5.64457,0.44201 c -0.70283,1.81364 -1.99174,3.44264 -3.31321,5.07143 z"
       id="path94"
       sodipodi:nodetypes="cccccccccccccccc" />
    <path
       style="fill:none;stroke:#cc9ebd;stroke-width:2;stroke-linecap:butt;stroke-linejoin:miter;stroke-miterlimit:4;stroke-dasharray:none;stroke-opacity:1"
       d="m 11.682823,29.258345 c -2.8753125,0.99623 -4.4700175,-0.42299 -5.0875965,-1.25685 -0.9466609,-1.46149 -0.6301009,-3.68453 2.379815,-5.48045 2.2775245,-1.45776 4.9931375,0.58147 2.2359475,3.21626 -3.5250245,3.16426 -5.8936394,0.26349 -8.0171535,-0.15608"
       id="path6502"
       sodipodi:nodetypes="ccccc" />
    <ellipse
       style="opacity:1;fill:none;fill-opacity:1;stroke:#000300;stroke-width:2;stroke-miterlimit:4;stroke-dasharray:none;stroke-opacity:1"
       id="path15595"
       cx="56.610638"
       cy="31.619976"
       rx="0.80062091"
       ry="1.9008722" />
    <text
       xml:space="preserve"
       transform="scale(0.26458333)"
       id="text20826"
       style="font-style:normal;font-weight:normal;font-size:40px;line-height:1.25;font-family:sans-serif;letter-spacing:0px;word-spacing:0px;white-space:pre;shape-inside:url(#rect20828);fill:#000000;fill-opacity:1;stroke:none" />
    <circle
       style="opacity:1;fill:none;fill-opacity:1;stroke:#000300;stroke-width:2;stroke-miterlimit:4;stroke-dasharray:none;stroke-opacity:1"
       id="path24038"
       cx="35.982975"
       cy="33.086945"
       r="2.9420674" />
    <path
       style="fill:none;stroke:#000000;stroke-width:2;stroke-linecap:butt;stroke-linejoin:miter;stroke-miterlimit:4;stroke-dasharray:none;stroke-opacity:1"
       d="m 35.936085,36.060715 v 15.00474"
       id="path24106" />
    <path
       style="fill:none;stroke:#000000;stroke-width:2;stroke-linecap:butt;stroke-linejoin:miter;stroke-miterlimit:4;stroke-dasharray:none;stroke-opacity:1"
       d="m 31.273882,39.110805 h 9.344359"
       id="path24108"
       sodipodi:nodetypes="cc" />
    <path
       style="fill:none;stroke:#000000;stroke-width:2;stroke-linecap:butt;stroke-linejoin:miter;stroke-miterlimit:4;stroke-dasharray:none;stroke-opacity:1"
       d="m 26.384736,46.846735 c 7.041917,6.73332 12.516388,6.88564 19.418298,0"
       id="path24110"
       sodipodi:nodetypes="cc" />
    <path
       style="fill:none;stroke:#000000;stroke-width:2;stroke-linecap:butt;stroke-linejoin:miter;stroke-miterlimit:4;stroke-dasharray:none;stroke-opacity:1"
       d="m 26.18808,49.800025 -0.643044,-3.74293 3.898924,0.3803 m -3.232394,0.52529"
       id="path25010"
       sodipodi:nodetypes="ccc" />
    <path
       style="fill:none;stroke:#000000;stroke-width:2;stroke-linecap:butt;stroke-linejoin:miter;stroke-miterlimit:4;stroke-dasharray:none;stroke-opacity:1"
       d="m 46.229589,49.637005 0.643044,-3.74293 -3.898924,0.3803 m 3.232394,0.52529"
       id="path25010-3"
       sodipodi:nodetypes="ccc" />
  </g>
</svg>
